PathFileType	4	(X/Y/Z)	 s01c0103.trc
DataRate	CameraRate	NumFrames	NumMarkers	Units	OrigDataRate	OrigDataStartFrame	OrigNumFrames
200	200	4	48	mm	200	1001	2000
Frame#	Time	racr			lacr			c7			jug			rlel			rdr			llel			ldr			s2			lic			ric			lasi			rasi			rpsi			lpsi			rgt			lgt			rth1			rth2			rth3			rth4			rlfc			rsh1			rsh2			rsh3			rsh4			rlmal			rmmal			rcal			rtoe			rmt5			lth1			lth2			lth4			lth3			llfc			lsh1			lsh2			lsh3			lsh4			llmal			lmmal			lcal			ltoe			lmt5			SBIKE			LBIKE			RBIKE			
		X1	Y1	Z1	X2	Y2	Z2	X3	Y3	Z3	X4	Y4	Z4	X5	Y5	Z5	X6	Y6	Z6	X7	Y7	Z7	X8	Y8	Z8	X9	Y9	Z9	X10	Y10	Z10	X11	Y11	Z11	X12	Y12	Z12	X13	Y13	Z13	X14	Y14	Z14	X15	Y15	Z15	X16	Y16	Z16	X17	Y17	Z17	X18	Y18	Z18	X19	Y19	Z19	X20	Y20	Z20	X21	Y21	Z21	X22	Y22	Z22	X23	Y23	Z23	X24	Y24	Z24	X25	Y25	Z25	X26	Y26	Z26	X27	Y27	Z27	X28	Y28	Z28	X29	Y29	Z29	X30	Y30	Z30	X31	Y31	Z31	X32	Y32	Z32	X33	Y33	Z33	X34	Y34	Z34	X35	Y35	Z35	X36	Y36	Z36	X37	Y37	Z37	X38	Y38	Z38	X39	Y39	Z39	X40	Y40	Z40	X41	Y41	Z41	X42	Y42	Z42	X43	Y43	Z43	X44	Y44	Z44	X45	Y45	Z45	X46	Y46	Z46	X47	Y47	Z47	X48	Y48	Z48	
1001	5.0050	503.964179	1326.507549	-98.089952	513.326175	1293.108161	-404.866048	465.691451	1388.987646	-248.944191	457.424377	1223.962693	-243.045966	572.886368	1063.352935	4.215544	737.076554	858.506994	-56.993943	529.074405	1027.493445	-526.691939	715.805863	876.691975	-428.548631	NaN	NaN	NaN	92.267838	1187.060110	-408.794692	106.615471	1160.179642	-75.773570	101.056054	1133.517262	-381.700302	130.436329	1117.313251	-107.499324	-29.592117	1198.644271	-163.821844	-41.232097	1206.562693	-270.431150	54.820505	1037.749695	-49.460883	51.633868	1072.620980	-432.996636	120.772395	926.355214	-35.017773	171.241723	859.814079	-39.523203	220.201288	784.886009	-55.047062	216.977727	891.287924	-52.020256	262.029182	677.522974	-76.037439	237.878510	562.221246	-44.642542	236.079077	477.634245	-51.382903	225.935547	390.038414	-63.898782	285.370478	477.085469	-87.422792	203.342881	269.663046	-90.124461	242.527724	286.587256	-161.901047	159.643207	256.250341	-140.443503	420.259194	178.671431	-134.790399	313.569170	167.782801	-62.977719	151.459835	1005.380260	-444.541865	239.560840	995.547946	-454.720582	248.695826	1047.507127	-439.830017	322.845045	974.949987	-448.620013	421.580173	900.535672	-435.471913	326.089062	843.020541	-456.942934	268.204570	779.986270	-444.420175	209.354522	719.405928	-426.760821	312.477265	744.664687	-418.919356	126.267322	630.575625	-405.457955	158.062792	623.018741	-324.699228	68.622130	622.007608	-359.698470	279.150385	444.997947	-373.538669	181.891214	493.281808	-436.159638	-223.894448	893.588431	-251.052933	-12.646252	85.561744	-457.286371	-22.218578	80.593645	-57.091113	
1002	5.0100	504.885411	1325.882283	-98.358723	512.568996	1294.079229	-404.565329	466.033460	1389.153824	-248.064826	457.763224	1223.865901	-242.736448	576.033621	1063.820796	3.197514	738.035574	857.857680	-56.793158	527.369535	1028.616891	-525.630425	715.028225	878.292846	-428.690818	NaN	NaN	NaN	91.644128	1188.990883	-407.237867	107.151901	1159.842417	-74.876668	100.920850	1134.685916	-380.958739	130.606428	1116.448447	-106.214869	-29.363919	1198.451044	-161.615826	-41.310859	1207.079880	-267.973589	54.283895	1037.177794	-48.495380	51.205762	1075.060917	-432.029099	118.857507	925.796484	-33.578576	168.556527	858.474179	-37.407529	216.760448	782.883781	-52.600636	214.787758	889.484077	-49.839046	257.001149	675.093134	-73.870220	231.986483	560.284617	-42.743163	229.905375	475.701567	-49.547530	219.677809	388.162160	-62.186613	279.643963	474.921392	-84.966176	197.199502	268.139749	-88.837892	235.618279	284.054266	-160.786646	153.439132	256.315846	-139.055327	411.700827	171.205426	-135.271931	305.173489	163.246713	-62.808746	151.579893	1009.031686	-443.702365	239.853001	1000.407811	-453.424867	248.033440	1052.213787	-438.099415	323.402399	981.080451	-447.586377	423.831210	909.309265	-435.126741	329.465387	850.967913	-456.177585	272.367963	787.103415	-443.677654	214.337062	725.670954	-425.881428	317.235126	752.104929	-418.815503	132.714295	634.706444	-404.890290	164.881804	627.693554	-324.460970	74.874885	624.507481	-359.390244	289.010435	452.115284	-373.160003	190.824773	498.478911	-435.854826	-223.849312	893.684992	-250.732798	-12.618259	85.681677	-457.232895	-22.211506	80.660537	-57.055802	
1003	5.0150	505.717469	1325.464315	-98.421995	511.727012	1295.000680	-404.292629	466.343377	1389.302127	-247.325435	458.053272	1223.768845	-242.451919	578.746142	1064.006346	2.354016	738.562805	857.333410	-56.559753	525.889340	1029.726123	-524.593222	714.309605	879.611880	-428.780667	NaN	NaN	NaN	91.211070	1190.745886	-405.977565	107.448477	1159.782768	-74.063864	100.396849	1135.980048	-380.070484	130.625430	1115.912788	-104.911109	-29.289463	1198.394225	-159.728847	-41.499748	1207.778734	-265.816177	53.569106	1036.741557	-47.778750	50.827658	1077.502595	-431.240157	117.099400	925.405214	-32.300326	166.074402	857.570442	-35.398167	213.585854	781.385099	-49.835949	212.505011	888.054203	-47.958147	252.513871	673.307170	-71.842173	226.666146	558.936702	-41.044195	224.097511	474.439369	-47.812878	213.535075	386.818946	-60.657426	274.247997	473.338208	-82.572332	190.946048	267.297277	-87.060127	228.857381	282.223140	-159.686339	147.317548	257.257224	-137.646613	402.773523	164.213857	-135.679363	296.526543	159.279053	-62.550268	151.729262	1012.551691	-442.825186	240.149625	1005.166678	-452.044674	247.595613	1056.991585	-436.673574	323.993862	986.921359	-446.295685	425.727881	917.614870	-434.358875	332.568152	858.354341	-455.161226	276.444888	793.745157	-442.839357	219.440231	731.307703	-425.069892	321.962440	759.144223	-418.586697	139.509914	637.865303	-404.356309	170.424129	631.032779	-324.125566	81.094728	626.080866	-359.159657	299.247856	458.666940	-372.875001	200.274366	503.014048	-435.309450	-223.800645	893.701153	-250.562259	-12.611704	85.755093	-457.170594	-22.162587	80.652260	-56.993049	
1004	5.0200	506.332732	1325.176962	-98.205496	510.829519	1295.850086	-404.086838	466.604862	1389.413313	-246.735813	458.294245	1223.677910	-242.180695	580.879352	1063.973699	1.841743	738.911017	857.032690	-56.452920	523.719550	1030.674958	-523.823177	713.725904	880.815352	-428.822802	NaN	NaN	NaN	90.621056	1192.615235	-404.740570	107.621958	1159.910500	-73.377383	99.900866	1137.473695	-379.291272	130.582436	1115.635472	-103.715389	-29.296299	1198.439842	-158.270936	-41.782796	1208.671017	-263.977055	52.778018	1036.487595	-47.334701	50.558449	1079.877949	-430.740801	115.459302	925.250445	-31.181606	164.001609	856.994789	-33.506269	210.882045	780.373889	-46.863511	210.627350	887.084375	-45.952639	248.666650	672.161867	-69.993147	221.815798	558.266333	-39.490838	218.798127	473.747831	-46.256681	207.619119	386.334118	-59.092452	268.886748	472.162810	-80.525674	184.772892	267.192732	-85.601549	222.331044	281.124996	-158.608145	141.354835	259.020239	-136.089010	393.610900	157.690082	-136.197406	287.735319	155.895922	-62.402884	151.937718	1015.909302	-441.872308	240.394774	1009.582553	-450.636577	247.087636	1061.644663	-435.288141	324.438455	992.542082	-444.877083	426.721123	925.460588	-433.586272	335.443868	865.271883	-454.044003	280.440617	799.648484	-441.920030	224.591723	736.079141	-424.166209	326.564243	765.741885	-418.152486	146.163813	640.014464	-403.638919	179.366380	634.204151	-323.872148	87.237495	626.688965	-359.025652	309.575308	464.631611	-372.583211	209.626003	506.752923	-435.159374	-223.780018	893.686693	-250.517663	-12.600647	85.744652	-457.138467	-22.150593	80.641358	-56.976020	
